<svg xmlns="http://www.w3.org/2000/svg" viewBox="0 0 1200 600" role="img" aria-labelledby="t d"><title id="t">Transparent before and after alignment</title><desc id="d">Two portrait layers overlap at fifty percent opacity and share facial landmarks.</desc><rect width="1200" height="600" fill="#f3f1ea"/><rect x="130" y="80" width="420" height="440" rx="24" fill="#cfe2ef"/><circle cx="330" cy="250" r="100" fill="#edb899"/><path d="M170 520c25-145 295-145 320 0" fill="#415b6a"/><g opacity=".48"><rect x="490" y="80" width="420" height="440" rx="24" fill="#f2d1df"/><circle cx="690" cy="250" r="100" fill="#e8a984"/><path d="M530 520c25-145 295-145 320 0" fill="#754c64"/></g><path d="M330 245h360M510 100v400" stroke="#ff5a36" stroke-width="6" stroke-dasharray="16 12"/><circle cx="300" cy="230" r="12" fill="#ff5a36"/><circle cx="360" cy="230" r="12" fill="#ff5a36"/><circle cx="660" cy="230" r="12" fill="#ff5a36"/><circle cx="720" cy="230" r="12" fill="#ff5a36"/><rect x="940" y="170" width="100" height="260" rx="50" fill="#ddd"/><rect x="940" y="300" width="100" height="130" rx="50" fill="#ff5a36"/><circle cx="990" cy="300" r="32" fill="#fff" stroke="#ff5a36" stroke-width="8"/></svg>
