<svg xmlns="http://www.w3.org/2000/svg" viewBox="0 0 1200 600" role="img" aria-labelledby="t d"><title id="t">Facial landmark alignment</title><desc id="d">A face with eye line, nose center, chin and margin guides.</desc><rect width="1200" height="600" fill="#f3f1ea"/><rect x="360" y="45" width="480" height="510" rx="28" fill="#dce8ee"/><ellipse cx="600" cy="275" rx="145" ry="175" fill="#efbd9d"/><path d="M465 205c20-130 250-160 285 5-80-80-190-70-285-5" fill="#4c3b35"/><circle cx="545" cy="265" r="13" fill="#222"/><circle cx="655" cy="265" r="13" fill="#222"/><path d="M600 280l-18 60h36" fill="none" stroke="#9b6249" stroke-width="8" stroke-linecap="round"/><path d="M550 385q50 35 100 0" fill="none" stroke="#9b6249" stroke-width="8"/><g stroke="#ff5a36" stroke-width="6" stroke-dasharray="16 12"><path d="M390 265h420"/><path d="M600 70v455"/><path d="M390 455h420"/></g><g fill="#ff5a36"><circle cx="545" cy="265" r="9"/><circle cx="655" cy="265" r="9"/><circle cx="600" cy="340" r="9"/><circle cx="600" cy="455" r="9"/></g></svg>
