<svg xmlns="http://www.w3.org/2000/svg" viewBox="0 0 1200 600" role="img" aria-labelledby="t d"><title id="t">Crop frame workflow</title><desc id="d">An image moves behind a fixed crop frame and becomes a clean output.</desc><rect width="1200" height="600" fill="#f3f1ea"/><rect x="70" y="85" width="420" height="430" rx="26" fill="#d8e6dc"/><circle cx="260" cy="245" r="90" fill="#f4c6a8"/><path d="M135 470c20-130 230-130 250 0" fill="#465b50"/><rect x="150" y="115" width="260" height="350" rx="12" fill="none" stroke="#ff5a36" stroke-width="12"/><path d="M525 300h120" stroke="#222" stroke-width="10" stroke-linecap="round"/><path d="M620 270l35 30-35 30" fill="none" stroke="#222" stroke-width="10" stroke-linecap="round" stroke-linejoin="round"/><rect x="700" y="115" width="350" height="350" rx="20" fill="#d8e6dc"/><circle cx="875" cy="245" r="75" fill="#f4c6a8"/><path d="M765 465c18-110 202-110 220 0" fill="#465b50"/><path d="M700 175h45M700 115v45M1005 115v45M1050 175h-45M700 405h45M700 465v-45M1005 465v-45M1050 405h-45" stroke="#ff5a36" stroke-width="12"/></svg>
