<svg xmlns="http://www.w3.org/2000/svg" viewBox="0 0 1200 600" role="img" aria-labelledby="t d"><title id="t">Local browser image processing</title><desc id="d">An image remains inside a browser window while normal website data travels to the network.</desc><rect width="1200" height="600" fill="#f3f1ea"/><rect x="100" y="80" width="650" height="430" rx="28" fill="#fff" stroke="#222" stroke-width="8"/><rect x="100" y="80" width="650" height="70" rx="28" fill="#deded8"/><circle cx="145" cy="115" r="12" fill="#ff5a36"/><circle cx="180" cy="115" r="12" fill="#f0b845"/><circle cx="215" cy="115" r="12" fill="#5ea66a"/><rect x="230" y="190" width="390" height="250" rx="18" fill="#d7e6ee"/><circle cx="425" cy="290" r="70" fill="#efbd9d"/><path d="M300 440c20-115 230-115 250 0" fill="#45606d"/><path d="M815 200h180M815 300h180M815 400h180" stroke="#aaa" stroke-width="10" stroke-linecap="round"/><path d="M970 170l40 30-40 30M970 270l40 30-40 30M970 370l40 30-40 30" fill="none" stroke="#aaa" stroke-width="10"/><path d="M210 455h430" stroke="#ff5a36" stroke-width="10"/><path d="M180 415v75M670 415v75" stroke="#ff5a36" stroke-width="10"/></svg>
