<svg xmlns="http://www.w3.org/2000/svg" viewBox="0 0 1200 600" role="img" aria-labelledby="t d"><title id="t">Mixed orientation photos in one carousel</title><desc id="d">Landscape, portrait, and square sources become a consistent row of equal carousel frames.</desc><rect width="1200" height="600" fill="#f3f1ea"/><g transform="translate(55 115)"><rect width="300" height="190" rx="20" fill="#dbe4f4"/><circle cx="95" cy="90" r="38" fill="#f2c49f"/><path d="M0 155l85-62 58 40 72-75 85 97z" fill="#7fa06d"/></g><g transform="translate(135 340)"><rect width="140" height="210" rx="18" fill="#e7ddf2"/><circle cx="70" cy="78" r="34" fill="#efbd9d"/><path d="M25 180c12-64 78-64 90 0" fill="#62728a"/></g><path d="M390 295h100" stroke="#222" stroke-width="9"/><path d="M462 265l35 30-35 30" fill="none" stroke="#222" stroke-width="9"/><g transform="translate(550 110)"><rect width="175" height="360" rx="20" fill="#dbe4f4"/><circle cx="88" cy="122" r="38" fill="#f2c49f"/><path d="M0 290l54-55 42 26 36-58 43 87z" fill="#7fa06d"/></g><g transform="translate(760 110)"><rect width="175" height="360" rx="20" fill="#e7ddf2"/><circle cx="88" cy="115" r="42" fill="#efbd9d"/><path d="M35 300c12-90 94-90 106 0" fill="#62728a"/></g><g transform="translate(970 110)"><rect width="175" height="360" rx="20" fill="#dfe8d8"/><rect x="38" y="72" width="99" height="99" rx="18" fill="#ffcf88"/><circle cx="88" cy="225" r="45" fill="#efbd9d"/><path d="M40 330c8-58 88-58 96 0" fill="#62728a"/></g><path d="M550 500h595" stroke="#ff5a36" stroke-width="10"/></svg>
