<svg xmlns="http://www.w3.org/2000/svg" viewBox="0 0 1200 600" role="img" aria-labelledby="t d"><title id="t">Large image editing on mobile</title><desc id="d">A mobile phone displays layered photos, memory blocks, pinch controls, and a practical output size.</desc><rect width="1200" height="600" fill="#f3f1ea"/><rect x="405" y="45" width="390" height="510" rx="48" fill="#222"/><rect x="432" y="85" width="336" height="410" rx="24" fill="#dbe4f4"/><rect x="475" y="125" width="250" height="300" rx="18" fill="#e7ddf2" transform="rotate(-4 600 275)"/><circle cx="600" cy="245" r="68" fill="#efbd9d"/><rect x="492" y="143" width="216" height="264" rx="14" fill="none" stroke="#ff5a36" stroke-width="8"/><circle cx="600" cy="525" r="14" fill="#777"/><g transform="translate(80 145)"><rect width="75" height="75" rx="12" fill="#62728a"/><rect x="95" width="75" height="75" rx="12" fill="#62728a"/><rect x="190" width="75" height="75" rx="12" fill="#62728a"/><rect y="95" width="75" height="75" rx="12" fill="#62728a"/><rect x="95" y="95" width="75" height="75" rx="12" fill="#b8c5d8"/><path d="M300 85h70" stroke="#ff5a36" stroke-width="10"/><path d="M345 58l32 27-32 27" fill="none" stroke="#ff5a36" stroke-width="10"/></g><g transform="translate(865 165)"><circle cx="55" cy="55" r="38" fill="#efbd9d"/><circle cx="150" cy="55" r="38" fill="#efbd9d"/><path d="M80 78c22 30 48 30 70 0" fill="none" stroke="#222" stroke-width="8"/><path d="M55 120l-35 95M150 120l35 95" stroke="#222" stroke-width="8"/><text x="16" y="265" font-family="Arial" font-size="34" fill="#222">1080 × 1350</text></g></svg>
