<svg xmlns="http://www.w3.org/2000/svg" viewBox="0 0 1200 600" role="img" aria-labelledby="t d"><title id="t">Consistent product photo grid</title><desc id="d">Six product cards share the same baseline and margins.</desc><rect width="1200" height="600" fill="#f3f1ea"/><g transform="translate(90 70)" fill="#fff" stroke="#ddd" stroke-width="4"><rect width="300" height="210" rx="18"/><rect x="360" width="300" height="210" rx="18"/><rect x="720" width="300" height="210" rx="18"/><rect y="260" width="300" height="210" rx="18"/><rect x="360" y="260" width="300" height="210" rx="18"/><rect x="720" y="260" width="300" height="210" rx="18"/></g><g fill="#79a7c0"><rect x="185" y="125" width="110" height="110" rx="18"/><rect x="485" y="105" width="150" height="130" rx="60"/><path d="M850 235l55-120 55 120z"/><rect x="190" y="365" width="100" height="105" rx="8"/><circle cx="600" cy="415" r="58"/><rect x="845" y="350" width="120" height="120" rx="35"/></g><g stroke="#ff5a36" stroke-width="7" stroke-dasharray="14 10"><path d="M120 235h960M120 470h960"/></g></svg>
