<svg xmlns="http://www.w3.org/2000/svg" viewBox="0 0 1200 600" role="img" aria-labelledby="t d"><title id="t">Consistent progress photo setup</title><desc id="d">Two aligned progress photos share camera height, landmarks, lighting, and crop boundaries.</desc><rect width="1200" height="600" fill="#f3f1ea"/><g transform="translate(145 80)"><rect width="350" height="440" rx="24" fill="#dbe4f4"/><circle cx="175" cy="145" r="58" fill="#efbd9d"/><path d="M90 355c22-118 148-118 170 0" fill="#62728a"/><path d="M40 390h270M40 100h270" stroke="#222" stroke-width="5" stroke-dasharray="14 12"/><rect x="45" y="55" width="260" height="335" rx="16" fill="none" stroke="#ff5a36" stroke-width="8"/></g><g transform="translate(705 80)"><rect width="350" height="440" rx="24" fill="#e7ddf2"/><circle cx="175" cy="145" r="58" fill="#efbd9d"/><path d="M85 355c20-118 160-118 180 0" fill="#62728a"/><path d="M40 390h270M40 100h270" stroke="#222" stroke-width="5" stroke-dasharray="14 12"/><rect x="45" y="55" width="260" height="335" rx="16" fill="none" stroke="#ff5a36" stroke-width="8"/></g><path d="M535 300h130" stroke="#222" stroke-width="8"/><path d="M632 272l34 28-34 28" fill="none" stroke="#222" stroke-width="8"/><circle cx="105" cy="300" r="24" fill="#ff5a36"/><path d="M105 324v110M70 370h70" stroke="#222" stroke-width="8"/><circle cx="1095" cy="300" r="24" fill="#ff5a36"/><path d="M1095 324v110M1060 370h70" stroke="#222" stroke-width="8"/></svg>
