<svg xmlns="http://www.w3.org/2000/svg" viewBox="0 0 1200 600" role="img" aria-labelledby="t d"><title id="t">Aspect ratio and resolution comparison</title><desc id="d">Rectangles with the same 4 by 5 shape contain different pixel grids.</desc><rect width="1200" height="600" fill="#f3f1ea"/><g transform="translate(120 80)"><rect width="320" height="400" rx="18" fill="#fff" stroke="#222" stroke-width="8"/><g stroke="#d5d5d5" stroke-width="3"><path d="M64 0v400M128 0v400M192 0v400M256 0v400M0 80h320M0 160h320M0 240h320M0 320h320"/></g><text x="160" y="450" text-anchor="middle" font-family="system-ui" font-size="36" font-weight="700">4 : 5</text></g><g transform="translate(650 80)"><rect width="320" height="400" rx="18" fill="#fff" stroke="#ff5a36" stroke-width="8"/><g stroke="#cfcfcf" stroke-width="1"><path d="M32 0v400M64 0v400M96 0v400M128 0v400M160 0v400M192 0v400M224 0v400M256 0v400M288 0v400M0 40h320M0 80h320M0 120h320M0 160h320M0 200h320M0 240h320M0 280h320M0 320h320M0 360h320"/></g><text x="160" y="450" text-anchor="middle" font-family="system-ui" font-size="36" font-weight="700">4 : 5</text></g><path d="M490 270h110" stroke="#222" stroke-width="10"/><path d="M570 240l35 30-35 30" fill="none" stroke="#222" stroke-width="10"/></svg>
