<svg xmlns="http://www.w3.org/2000/svg" viewBox="0 0 1200 600" role="img" aria-labelledby="t d"><title id="t">Multiple images in one shared frame</title><desc id="d">Three different source images align to identical output rectangles.</desc><rect width="1200" height="600" fill="#f3f1ea"/><g transform="translate(70 90)"><rect width="250" height="340" rx="18" fill="#dbe4f4" transform="rotate(-5 125 170)"/><circle cx="125" cy="160" r="56" fill="#efbd9d"/><rect x="35" y="40" width="180" height="250" rx="8" fill="none" stroke="#ff5a36" stroke-width="9"/></g><g transform="translate(340 90)"><rect width="250" height="340" rx="18" fill="#e7ddf2" transform="rotate(4 125 170)"/><circle cx="145" cy="145" r="70" fill="#efbd9d"/><rect x="35" y="40" width="180" height="250" rx="8" fill="none" stroke="#ff5a36" stroke-width="9"/></g><path d="M640 280h100" stroke="#222" stroke-width="9"/><path d="M715 250l35 30-35 30" fill="none" stroke="#222" stroke-width="9"/><g transform="translate(790 100)"><rect width="155" height="310" rx="12" fill="#dbe4f4"/><circle cx="78" cy="145" r="52" fill="#efbd9d"/><rect x="190" width="155" height="310" rx="12" fill="#e7ddf2"/><circle cx="268" cy="145" r="52" fill="#efbd9d"/><path d="M0 335h345" stroke="#ff5a36" stroke-width="10"/></g></svg>
