<svg xmlns="http://www.w3.org/2000/svg" viewBox="0 0 1200 600" role="img" aria-labelledby="t d"><title id="t">Social media crop formats</title><desc id="d">One source photo adapted into square, portrait, and story layouts with central safe areas.</desc><rect width="1200" height="600" fill="#f3f1ea"/><g transform="translate(75 95)"><rect width="260" height="410" rx="26" fill="#dbe4f4"/><circle cx="130" cy="160" r="58" fill="#efbd9d"/><path d="M55 315c18-92 132-92 150 0" fill="#62728a"/><rect x="38" y="38" width="184" height="334" rx="18" fill="none" stroke="#ff5a36" stroke-width="8" stroke-dasharray="16 12"/></g><g transform="translate(465 145)"><rect width="270" height="270" rx="22" fill="#e7ddf2"/><circle cx="135" cy="100" r="48" fill="#efbd9d"/><path d="M65 225c15-75 125-75 140 0" fill="#62728a"/><rect x="28" y="28" width="214" height="214" rx="16" fill="none" stroke="#ff5a36" stroke-width="8" stroke-dasharray="16 12"/></g><g transform="translate(860 70)"><rect width="210" height="460" rx="28" fill="#dfe8d8"/><circle cx="105" cy="175" r="52" fill="#efbd9d"/><path d="M45 340c15-82 105-82 120 0" fill="#62728a"/><rect x="32" y="80" width="146" height="300" rx="18" fill="none" stroke="#ff5a36" stroke-width="8" stroke-dasharray="16 12"/></g><path d="M350 300h82M752 300h82" stroke="#222" stroke-width="8"/><path d="M408 274l28 26-28 26M810 274l28 26-28 26" fill="none" stroke="#222" stroke-width="8"/></svg>
