<svg xmlns="http://www.w3.org/2000/svg" viewBox="0 0 1200 600" role="img" aria-labelledby="t d"><title id="t">Transparent PNG crop and padding</title><desc id="d">A transparent checkerboard canvas shows a product cutout, soft shadow, and consistent crop padding.</desc><defs><pattern id="c" width="36" height="36" patternUnits="userSpaceOnUse"><rect width="36" height="36" fill="#fff"/><rect width="18" height="18" fill="#d9d9d9"/><rect x="18" y="18" width="18" height="18" fill="#d9d9d9"/></pattern><filter id="b"><feGaussianBlur stdDeviation="12"/></filter></defs><rect width="1200" height="600" fill="#f3f1ea"/><rect x="190" y="70" width="820" height="460" rx="26" fill="url(#c)"/><ellipse cx="600" cy="440" rx="210" ry="38" fill="#555" opacity=".25" filter="url(#b)"/><path d="M445 382c0-130 64-220 155-220s155 90 155 220z" fill="#ffb95c"/><rect x="500" y="132" width="200" height="90" rx="42" fill="#62728a"/><circle cx="555" cy="320" r="18" fill="#fff"/><circle cx="645" cy="320" r="18" fill="#fff"/><rect x="320" y="105" width="560" height="390" rx="20" fill="none" stroke="#ff5a36" stroke-width="10"/><path d="M320 105l55 55M880 105l-55 55M320 495l55-55M880 495l-55-55" stroke="#222" stroke-width="6"/></svg>
