<svg xmlns="http://www.w3.org/2000/svg" viewBox="0 0 1200 600" role="img" aria-labelledby="t d"><title id="t">Image crop troubleshooting</title><desc id="d">Four panels represent blur, clipping, rotation and memory issues.</desc><rect width="1200" height="600" fill="#f3f1ea"/><g transform="translate(80 95)"><rect width="220" height="300" rx="20" fill="#fff" stroke="#ddd" stroke-width="5"/><circle cx="110" cy="140" r="70" fill="#efbd9d" opacity=".35"/><circle cx="105" cy="137" r="70" fill="#efbd9d" opacity=".35"/><circle cx="115" cy="143" r="70" fill="#efbd9d" opacity=".35"/><path d="M45 255h130" stroke="#ff5a36" stroke-width="10" stroke-dasharray="10 10"/></g><g transform="translate(340 95)"><rect width="220" height="300" rx="20" fill="#fff" stroke="#ddd" stroke-width="5"/><circle cx="185" cy="145" r="90" fill="#efbd9d"/><path d="M10 30h55M10 30v55M210 30h-55M210 30v55M10 290h55M10 290v-55M210 290h-55M210 290v-55" stroke="#ff5a36" stroke-width="9"/></g><g transform="translate(600 95)"><rect width="220" height="300" rx="20" fill="#fff" stroke="#ddd" stroke-width="5"/><rect x="65" y="70" width="90" height="160" rx="12" fill="#d7e6ee" transform="rotate(35 110 150)"/><path d="M55 250q55 45 110 0" fill="none" stroke="#ff5a36" stroke-width="10"/><path d="M165 250l-10-35 35 10" fill="none" stroke="#ff5a36" stroke-width="10"/></g><g transform="translate(860 95)"><rect width="220" height="300" rx="20" fill="#fff" stroke="#ddd" stroke-width="5"/><rect x="45" y="65" width="130" height="170" rx="16" fill="#d7e6ee"/><path d="M80 110h60M80 145h60M80 180h60" stroke="#627b89" stroke-width="12" stroke-linecap="round"/><path d="M55 255h110" stroke="#ff5a36" stroke-width="14"/><path d="M80 255v-25M110 255v-55M140 255v-85" stroke="#ff5a36" stroke-width="14"/></g><text x="600" y="500" text-anchor="middle" font-family="system-ui" font-size="34" font-weight="700">BLUR · CLIP · ROTATE · MEMORY</text></svg>
