<svg xmlns="http://www.w3.org/2000/svg" viewBox="0 0 1200 600" role="img" aria-labelledby="t d"><title id="t">Stable frames for a before and after video</title><desc id="d">Three equal video frames show a stationary subject and a timeline.</desc><rect width="1200" height="600" fill="#f3f1ea"/><g transform="translate(100 70)"><g><rect width="250" height="380" rx="18" fill="#cee1ed"/><circle cx="125" cy="175" r="62" fill="#efbd9d"/><path d="M42 380c20-120 146-120 166 0" fill="#405a69"/></g><g transform="translate(320)"><rect width="250" height="380" rx="18" fill="#d9e8d5"/><circle cx="125" cy="175" r="62" fill="#efbd9d"/><path d="M42 380c20-120 146-120 166 0" fill="#4c6847"/></g><g transform="translate(640)"><rect width="250" height="380" rx="18" fill="#ead9e5"/><circle cx="125" cy="175" r="62" fill="#efbd9d"/><path d="M42 380c20-120 146-120 166 0" fill="#725469"/></g></g><path d="M110 510h880" stroke="#222" stroke-width="12" stroke-linecap="round"/><g fill="#ff5a36"><circle cx="225" cy="510" r="20"/><circle cx="545" cy="510" r="20"/><circle cx="865" cy="510" r="20"/></g><path d="M1010 480l70 30-70 30z" fill="#222"/></svg>
